PathFileType	4	(X/Y/Z)	Run_300 02
DataRate	CameraRate	NumFrames	NumMarkers	Units	OrigDataRate	OrigDataStartFrame	OrigNumFrames
100	100	7	42	mm	100	171	128
Frame#	Time	LASI			RASI			LPSI			RTH1			RTH2			RTH3			LTH1			LTH2			LTH3			RTB1			RTB2			RTB3			LTB1			LTB2			LTB3			RCAL			RTOE			RMT5			LCAL			LTOE			LMT5			LACR			RACR			CLAV			C7			RUA1			RUA2			RUA3			RLEL			RMEL			LUA1			LUA2			LUA3			LLEL			RFAsuperior			RFAradius			RFAulna			LFAsuperior			LFAradius			LFAulna			LMEL			RPSI			
		X1	Y1	Z1	X2	Y2	Z2	X3	Y3	Z3	X4	Y4	Z4	X5	Y5	Z5	X6	Y6	Z6	X7	Y7	Z7	X8	Y8	Z8	X9	Y9	Z9	X10	Y10	Z10	X11	Y11	Z11	X12	Y12	Z12	X13	Y13	Z13	X14	Y14	Z14	X15	Y15	Z15	X16	Y16	Z16	X17	Y17	Z17	X18	Y18	Z18	X19	Y19	Z19	X20	Y20	Z20	X21	Y21	Z21	X22	Y22	Z22	X23	Y23	Z23	X24	Y24	Z24	X25	Y25	Z25	X26	Y26	Z26	X27	Y27	Z27	X28	Y28	Z28	X29	Y29	Z29	X30	Y30	Z30	X31	Y31	Z31	X32	Y32	Z32	X33	Y33	Z33	X34	Y34	Z34	X35	Y35	Z35	X36	Y36	Z36	X37	Y37	Z37	X38	Y38	Z38	X39	Y39	Z39	X40	Y40	Z40	X41	Y41	Z41	X42	Y42	Z42	

169	2.29	1233.302798	966.914806	-471.410014	1234.749492	968.942718	-216.026633	1064.859933	1026.432439	-393.017019	1187.836923	799.601179	-163.806453	1221.158626	698.207115	-176.585642	1155.225685	564.627263	-202.990714	1176.544116	818.472072	-530.653804	1295.3475	727.7515110000001	-518.573744	1277.379752	598.506131	-512.3152229999999	1119.768435	308.164351	-289.500492	1026.456995	242.565777	-248.734063	1001.515438	179.542341	-316.803698	1219.410146	377.931251	-439.291458	1148.545173	379.885683	-480.091684	1093.733027	320.685305	-427.773956	837.71479	138.360984	-318.935462	1062.437492	67.824815	-329.837635	1038.056108	53.935184	-252.43208	914.075634	345.784018	-403.554695	1045.527319	141.096195	-408.34529	1013.323068	160.148336	-492.362338	1219.888957	1504.817562	-483.250745	1289.275808	1459.114797	-146.97135	1309.226975	1416.267736	-300.821824	1198.902155	1518.552318	-303.235256	1250.07863	1318.241874	-73.420179	1180.327591	1305.171259	-62.724484	1201.131402	1238.737561	-49.950388	1178.821969	1163.446438	-29.675033	1126.665007	1156.672485	-108.560155	1111.162304	1439.983629	-547.3826330000001	1031.282826	1424.512509	-503.894732	1015.934893	1362.504029	-568.225286	966.192827	1314.111979	-585.236837	1259.285116	1185.803041	-64.18248	1375.294695	1231.567124	-176.81005	1391.090209	1166.111915	-152.414911	1026.902232	1248.874267	-588.065334	1169.660143	1156.944524	-530.497739	1121.199356	1106.821836	-549.4783169999999	942.945596	1301.872673	-497.444601	1063.778593	1027.894931	-300.220513	
170	2.3	1235.402407	974.528859	-469.117822	1236.089962	974.8128840000001	-214.483811	1067.632274	1034.184567	-392.831491	1184.117082	803.530806	-164.906312	1211.973105	701.274276	-177.256085	1137.953006	569.83534	-203.23153	1180.498618	828.225985	-531.631466	1300.505769	740.936584	-518.27763	1286.041813	610.810726	-512.710259	1094.262538	312.921751	-288.123675	1000.08851	248.470226	-248.056203	975.319432	184.276679	-315.39265	1239.443029	382.215915	-440.091479	1167.853757	379.038735	-479.886392	1118.042642	314.777913	-427.836296	812.059196	147.406694	-317.637799	1033.347776	67.336761	-329.771881	1008.272388	54.262127	-252.510774	937.411916	324.746999	-401.473823	1086.471121	132.289281	-409.952724	1051.545794	149.398716	-493.703075	1216.793724	1513.459763	-483.913998	1292.064885	1468.553123	-149.668854	1309.602279	1425.103144	-303.234154	1198.6958	1526.08681	-304.102513	1255.087896	1327.244424	-75.918814	1185.854527	1314.333169	-62.52616	1207.006832	1247.517923	-51.775049	1184.875236	1171.833299	-31.826924	1130.379826	1166.287777	-109.715903	1105.932264	1452.72174	-545.464922	1028.499838	1437.61379	-498.615574	1009.226275	1378.358355	-564.748878	957.577899	1330.557968	-580.3400329999999	1263.701207	1197.127569	-67.872229	1374.438589	1248.026957	-183.582876	1393.325273	1183.069624	-160.09572	1017.423753	1264.616471	-584.901149	1162.26233	1173.049912	-530.889898	1113.242697	1122.841351	-547.390414	937.334979	1318.183954	-491.740313	1065.853512	1034.487255	-299.972073	
171	2.31	1237.940261	982.177271	-467.679393	1237.899425	981.070714	-213.181702	1070.773983	1042.40424	-392.634266	1180.930925	808.029082	-166.086152	1203.995981	704.294414	-179.768643	1121.256342	576.540587	-203.208468	1184.53036	838.486845	-532.581403	1305.134818	754.051346	-517.882435	1293.643848	623.269288	-512.916421	1069.397304	319.303369	-286.712404	974.610584	255.813256	-247.198753	950.035128	190.528668	-313.978419	1258.522459	386.153394	-440.543714	1186.943466	377.394265	-479.704552	1142.768458	308.656097	-427.683807	787.817938	157.770484	-316.594288	1004.715633	66.905253	-329.751271	978.837899	54.736396	-252.590201	962.2710959999999	303.125453	-399.885303	1128.176361	124.693789	-410.175898	1091.000279	138.959565	-493.975744	1214.489652	1522.275986	-484.506603	1294.695533	1478.697662	-152.538014	1310.020987	1434.501973	-305.762272	1198.629316	1534.139064	-305.225529	1260.139271	1337.224649	-78.202957	1191.736675	1324.818507	-61.425816	1212.855068	1257.477819	-52.951687	1190.746138	1181.44318	-33.208947	1133.787438	1177.148441	-109.882947	1101.80582	1465.602554	-543.721999	1026.637543	1450.789115	-494.060442	1003.802728	1393.740309	-561.133825	950.13882	1346.597499	-575.268139	1267.925751	1209.211007	-71.107821	1373.24095	1263.9322	-190.109722	1394.930703	1199.496179	-167.453584	1009.006366	1279.879615	-581.371513	1156.440124	1189.253937	-531.100985	1107.050604	1138.913581	-545.1467	933.192646	1334.519077	-485.63749	1068.397448	1041.582749	-299.667967	
172	2.32	1240.696613	989.461754	-467.130373	1240.188902	987.3318379999999	-212.440059	1074.198873	1050.850444	-392.335923	1178.13757	812.761749	-167.214797	1196.76868	707.172335	-183.511571	1105.415454	584.466468	-202.997652	1188.532201	848.985175	-533.480679	1309.256816	766.7121069999999	-517.559751	1299.995544	635.436012	-512.768103	1045.584352	327.061448	-285.576789	950.358933	264.338647	-246.15721	925.986702	198.171592	-312.671354	1276.744526	389.77724	-440.790061	1206.013504	374.980548	-479.657587	1168.142064	302.465525	-427.274409	765.231656	169.242903	-315.576207	976.604673	66.541906	-329.66731	949.847845	55.222084	-252.544276	988.8581380000001	281.14165	-398.899827	1170.35289	118.420337	-409.02194	1131.630454	128.895487	-492.966737	1212.779052	1531.028147	-485.021142	1297.10538	1489.316657	-155.609584	1310.439603	1444.178457	-308.47324	1198.585447	1542.336928	-306.642184	1265.084149	1348.053281	-80.217302	1197.816317	1336.271122	-60.005263	1218.646898	1268.406274	-53.505151	1196.465541	1192.02278	-33.817007	1136.850789	1188.955024	-108.84111	1098.71792	1478.277961	-542.113356	1025.508157	1463.874549	-490.228847	999.439202	1408.254377	-557.451512	943.884294	1361.862977	-570.1661790000001	1272.000965	1221.651923	-73.86307600000001	1371.84741	1279.166633	-196.273458	1395.970904	1215.12272	-174.547003	1001.923493	1294.684166	-577.6018769999999	1152.008295	1205.247507	-531.30278	1102.498938	1154.674886	-542.941322	930.178303	1350.313017	-479.42409	1071.42068	1048.916166	-299.243497	
173	2.33	1243.679312	996.223836	-467.223682	1242.905979	993.235357	-212.322325	1077.885208	1059.225128	-391.8655	1175.451881	817.440249	-168.27455	1189.538701	710.522829	-186.898996	1090.606904	593.164367	-202.720159	1192.409771	859.452895	-534.281819	1312.924455	778.613618	-517.350818	1304.957131	646.828019	-512.218778	1023.15549	335.75991	-284.569729	927.516129	273.70171	-244.928653	903.473257	206.761221	-311.384047	1294.144725	393.085682	-440.723079	1225.074939	371.916512	-479.584942	1193.995216	296.324398	-426.596491	744.457004	181.735783	-314.360996	948.950796	66.35065299999999	-329.442143	921.285247	55.753127	-252.328326	1017.28366	258.985967	-398.47073	1212.831442	113.491232	-406.701161	1173.307583	119.303926	-490.722436	1211.409214	1539.540982	-485.527655	1299.229425	1500.162209	-158.884358	1310.763573	1453.811349	-311.23924	1198.438062	1550.34603	-308.286629	1269.93408	1359.484438	-81.972639	1203.885092	1348.24298	-58.861284	1224.372558	1280.007015	-53.549361	1202.119861	1203.290303	-33.704781	1139.360543	1201.298702	-106.414759	1096.445753	1490.581915	-540.772157	1025.010763	1476.637327	-487.059356	995.978149	1421.721133	-553.831897	938.79797	1376.124849	-565.118739	1275.984628	1234.090426	-76.07491400000001	1370.38158	1293.580823	-201.967938	1396.440188	1229.636672	-181.403551	996.3168429999999	1308.959498	-573.785486	1148.778867	1220.749086	-531.589885	1099.404872	1169.814419	-540.895428	928.095268	1365.075957	-473.402712	1074.805413	1056.23153	-298.684293	
174	2.34	1246.974187	1002.334067	-467.717394	1245.950414	998.453923	-212.705521	1081.731987	1067.235406	-391.194311	1172.740681	821.941425	-169.339088	1182.093725	714.738238	-188.982565	1076.960887	602.127846	-202.462615	1196.082529	869.641991	-534.91276	1316.217446	789.4961029999999	-517.160153	1308.502008	657.0171759999999	-511.309971	1002.254441	345.03636	-283.430603	906.1430800000001	283.629348	-243.551116	882.593416	215.840255	-309.906307	1310.621261	396.040425	-440.169734	1243.92483	368.361851	-479.25256	1220.013927	290.340818	-425.752807	725.550561	195.22433	-312.91097	921.669401	66.54027499999999	-329.048199	893.130671	56.609167	-251.998326	1047.521126	236.890605	-398.353924	1255.581143	109.99269	-403.670438	1215.861507	110.504469	-487.658533	1210.345373	1547.665068	-486.13977	1301.016637	1510.990658	-162.311165	1310.956203	1463.085545	-313.884805	1198.130203	1557.930521	-310.061384	1274.69566	1371.211979	-83.47613699999999	1209.623545	1360.360921	-58.36524	1229.944968	1291.987905	-53.233362	1207.752648	1214.981774	-32.952117	1141.219645	1213.738283	-102.759803	1094.738484	1502.385129	-540.004227	1025.106785	1488.726398	-484.431032	993.3178370000001	1434.13514	-550.414394	934.811516	1389.25208	-560.175008	1279.930814	1246.24195	-77.746472	1369.001296	1306.967521	-207.102429	1396.347538	1242.705225	-187.97242	992.14714	1322.463284	-570.115969	1146.618616	1235.503312	-531.963494	1097.609525	1184.094898	-539.102515	926.891936	1378.506435	-467.82377	1078.343879	1063.358779	-297.997224	
175	2.35	1250.527197	1007.618135	-468.47662	1249.1776	1002.768032	-213.402247	1085.463225	1074.671167	-390.347871	1170.160441	826.297237	-170.449772	1174.801001	719.563762	-190.113909	1064.573541	610.963319	-202.282993	1199.467149	879.342785	-535.316523	1319.212034	799.0820220000001	-516.832595	1310.655752	665.668082	-510.014496	982.910464	354.779131	-282.165427	886.323843	294.009856	-242.116695	863.2994169999999	225.217484	-308.15478	1326.003587	398.597877	-439.28677	1262.286526	364.476602	-478.634532	1245.960545	284.656227	-424.922314	708.552518	209.645132	-311.339648	894.83261	67.329021	-328.494862	865.5020929999999	58.171262	-251.645555	1079.441406	215.160477	-398.141618	1298.568952	108.228048	-400.551349	1259.063646	103.146539	-484.416222	1209.774966	1555.271591	-486.937046	1302.459205	1521.553713	-165.806744	1311.08688	1471.733173	-316.318857	1197.707684	1564.920878	-311.915091	1279.200318	1382.959712	-84.713448	1214.663512	1372.425529	-58.542457	1235.207146	1304.101142	-52.66584	1213.277844	1226.814192	-31.651487	1142.77059	1225.94417	-98.47751100000001	1093.491655	1513.38413	-539.941155	1025.754236	1499.764766	-482.173948	991.365244	1445.522275	-547.3262999999999	931.813035	1401.114677	-555.479192	1283.828304	1257.83714	-78.984302	1367.898344	1319.09171	-211.582237	1395.741491	1254.074335	-194.138215	989.254059	1334.863023	-566.773486	1145.453675	1249.2737	-532.387305	1097.011473	1197.312705	-537.666962	926.511757	1390.466246	-462.856658	1081.853136	1070.168377	-297.163689	
